<?xml version="1.0" encoding="UTF-8"?>
<svg id="Layer_1" xmlns="http://www.w3.org/2000/svg" version="1.1" viewBox="0 0 268.7 62.9">
  <!-- Generator: Adobe Illustrator 29.2.1, SVG Export Plug-In . SVG Version: 2.1.0 Build 116)  -->
  <defs>
    <style>
      .st0 {
        fill: #fff;
      }
    </style>
  </defs>
  <g>
    <path class="st0" d="M69.1,38.9h5.6l6.2,10,6.2-10h5.6v23.6h-5.2v-15.4l-6.6,10.1h-.1l-6.6-10v15.3h-5.1v-23.6h0Z"/>
    <path class="st0" d="M105.2,38.7h4.8l10.1,23.8h-5.4l-2.2-5.3h-10l-2.2,5.3h-5.3l10.1-23.8h0ZM110.7,52.6l-3.1-7.7-3.1,7.7h6.3Z"/>
    <path class="st0" d="M122.5,38.9h10.8c3,0,5.3.8,6.9,2.4,1.3,1.3,2,3.2,2,5.4h0c0,3.9-2.1,6.3-5.1,7.4l5.8,8.4h-6.1l-5.1-7.5h-4.1v7.5h-5.2v-23.6ZM132.9,50.4c2.5,0,4-1.3,4-3.3h0c0-2.3-1.6-3.4-4.1-3.4h-5.2v6.8h5.3Z"/>
    <path class="st0" d="M145.9,38.9h5.2v10.3l9.6-10.3h6.3l-9.6,10,10.1,13.6h-6.2l-7.3-10-2.7,2.8v7.2h-5.2v-23.6Z"/>
    <path class="st0" d="M169.5,38.9h17.8v4.6h-12.6v4.8h11.1v4.6h-11.1v5h12.8v4.6h-18s0-23.6,0-23.6Z"/>
    <path class="st0" d="M196.6,43.7h-7.2v-4.8h19.6v4.8h-7.2v18.8h-5.2v-18.8h0Z"/>
    <path class="st0" d="M211.6,38.9h5.2v23.6h-5.2v-23.6Z"/>
    <path class="st0" d="M221.6,38.9h4.8l11.1,14.5v-14.5h5.1v23.6h-4.4l-11.4-15v15h-5.1v-23.6h0Z"/>
    <path class="st0" d="M246.2,50.8h0c0-6.8,5.2-12.3,12.4-12.3s6.8,1.2,9.3,3.2l-3.3,4c-1.8-1.5-3.4-2.4-6.2-2.4s-6.8,3.3-6.8,7.3h0c0,4.4,3,7.6,7.1,7.6s3.6-.5,4.9-1.4v-3.4h-5.2v-4.5h10.2v10.2c-2.4,2.1-5.8,3.7-10.1,3.7-7.4,0-12.4-5.2-12.4-12.1h0Z"/>
  </g>
  <g>
    <path class="st0" d="M76.8,6.6h-9.9V0h27v6.6h-9.9v26h-7.2V6.6h0Z"/>
    <path class="st0" d="M97.3,0h14.9c4.2,0,7.4,1.2,9.5,3.3,1.8,1.8,2.8,4.4,2.8,7.5h0c0,5.4-2.8,8.7-7,10.2l8,11.7h-8.4l-7-10.5h-5.6v10.5h-7.2V0h0ZM111.8,15.9c3.5,0,5.5-1.9,5.5-4.6h0c0-3.2-2.2-4.8-5.6-4.8h-7.1v9.4h7.3Z"/>
    <path class="st0" d="M129.9,0h7.2v32.6h-7.2V0Z"/>
    <path class="st0" d="M143.8,0h12.7c10.3,0,17.4,7,17.4,16.2h0c0,9.3-7.1,16.4-17.4,16.4h-12.7V0ZM156.5,26.2c5.9,0,9.8-4,9.8-9.8h0c0-5.9-4-9.9-9.8-9.9h-5.6v19.7h5.6Z"/>
    <path class="st0" d="M178.7,0h24.6v6.4h-17.5v6.6h15.4v6.4h-15.4v6.9h17.7v6.4h-24.9V0h0Z"/>
    <path class="st0" d="M209,0h6.6l15.3,20.1V0h7.1v32.6h-6.1l-15.8-20.8v20.8h-7.1V0Z"/>
    <path class="st0" d="M251.4,6.6h-9.9V0h27v6.6h-9.9v26h-7.2V6.6h0Z"/>
  </g>
  <g>
    <polygon class="st0" points="0 0 62.8 0 62.8 18.6 43 18.6 31.3 29.1 19.8 18.6 0 18.6 0 0"/>
    <polygon class="st0" points="18.6 40.6 31.4 52 44.2 40 44.2 62.8 18.6 62.8 18.6 40.6"/>
  </g>
</svg>